%FSTAX23Y23*%
%MOIN*%
%SFA1B1*%

%IPPOS*%
%AMD17*
4,1,8,0.012500,0.037500,-0.012500,0.037500,-0.025000,0.025000,-0.025000,-0.025000,-0.012500,-0.037500,0.012500,-0.037500,0.025000,-0.025000,0.025000,0.025000,0.012500,0.037500,0.0*
%
%AMD18*
4,1,8,0.025000,0.025000,-0.025000,0.025000,-0.037500,0.012500,-0.037500,-0.012500,-0.025000,-0.025000,0.025000,-0.025000,0.037500,-0.012500,0.037500,0.012500,0.025000,0.025000,0.0*
%
%AMD20*
4,1,8,-0.037500,0.012500,-0.037500,-0.012500,-0.025000,-0.025000,0.025000,-0.025000,0.037500,-0.012500,0.037500,0.012500,0.025000,0.025000,-0.025000,0.025000,-0.037500,0.012500,0.0*
%
%ADD12C,0.030000*%
%ADD13C,0.050000*%
%ADD14C,0.060000*%
G04~CAMADD=17~4~0.0~0.0~500.0~750.0~0.0~125.0~0~0.0~0.0~0.0~0.0~0~0.0~0.0~0.0~0.0~0~0.0~0.0~0.0~0.0~500.0~750.0*
%ADD17D17*%
G04~CAMADD=18~4~0.0~0.0~750.0~500.0~0.0~125.0~0~0.0~0.0~0.0~0.0~0~0.0~0.0~0.0~0.0~0~0.0~0.0~0.0~0.0~750.0~500.0*
%ADD18D18*%
%ADD19O,0.080000X0.070000*%
G04~CAMADD=20~4~0.0~0.0~500.0~750.0~0.0~125.0~0~0.0~0.0~0.0~0.0~0~0.0~0.0~0.0~0.0~0~0.0~0.0~0.0~90.0~750.0~500.0*
%ADD20D20*%
%ADD21O,0.060000X0.080000*%
%ADD22O,0.080000X0.060000*%
%ADD23O,0.080000X0.060000*%
%ADD24C,0.060000*%
%ADD25R,0.059000X0.059000*%
%ADD26C,0.059000*%
%ADD27C,0.079000*%
%ADD28R,0.079000X0.079000*%
%ADD29O,0.045000X0.100000*%
%ADD30R,0.045000X0.100000*%
%ADD31O,0.062000X0.082000*%
%ADD32O,0.070000X0.060000*%
%ADD33R,0.070000X0.060000*%
%ADD34R,0.059000X0.059000*%
%ADD35C,0.070000*%
%ADD36C,0.035000*%
%ADD37C,0.020000*%
%ADD38C,0.080000*%
%LNxiaochequdongban-1*%
%LPD*%
G54D12*
X0307Y0368D02*
X0308Y0369D01*
X0317Y0368D02*
X0318Y0369D01*
X04665Y0368D02*
X0467Y03685D01*
Y0381*
X04565Y0368D02*
X0457Y03685D01*
Y0381*
X04465Y0368D02*
X0447Y03685D01*
Y0381*
X04365Y0368D02*
X0437Y03685D01*
Y0381*
X04265Y0368D02*
X0427Y03685D01*
Y0381*
X04165Y0368D02*
X0417Y03685D01*
Y0381*
X04065Y0368D02*
X0407Y03685D01*
Y0381*
X03965Y0368D02*
X0397Y03685D01*
Y0381*
X0367Y0308D02*
Y03187D01*
X03647Y0321D02*
X0367Y03187D01*
X0261Y0321D02*
X03647D01*
X0249D02*
X0261D01*
X0377Y0308D02*
Y03199D01*
X03659Y0331D02*
X0377Y03199D01*
X0261Y0331D02*
X03659D01*
X0249D02*
X0261D01*
X03772Y02982D02*
X0387Y0308D01*
X03282Y02982D02*
X03772D01*
X032Y029D02*
X03282Y02982D01*
X0379Y029D02*
X0397Y0308D01*
X0364Y029D02*
X0379D01*
X0407Y0291D02*
X0408Y029D01*
X0407Y0291D02*
Y0308D01*
G54D13*
X04792Y03574D02*
Y04022D01*
Y03202D02*
Y03574D01*
X046D02*
X04792D01*
X0454Y03514D02*
X046Y03574D01*
X0454Y0346D02*
Y03514D01*
X0457Y0328D02*
X0464Y0335D01*
Y0346*
X044D02*
X0454D01*
X043Y0335D02*
Y0346D01*
Y0335D02*
X0437Y0328D01*
X0288Y0384D02*
Y03862D01*
X04694Y0412D02*
X04792Y04022D01*
X046Y0412D02*
X04694D01*
X0467Y02927D02*
Y0308D01*
X04545Y02802D02*
X0467Y02927D01*
X04182Y02802D02*
X04545D01*
X0387Y0412D02*
X041D01*
X0381Y0406D02*
X0387Y0412D01*
X0408Y027D02*
X04182Y02802D01*
X03988Y02792D02*
X0408Y027D01*
X03732Y02792D02*
X03988D01*
X0364Y027D02*
X03732Y02792D01*
X03538Y02802D02*
X0364Y027D01*
X03302Y02802D02*
X03538D01*
X032Y027D02*
X03302Y02802D01*
X038Y0406D02*
X0381D01*
X0358Y0384D02*
X038Y0406D01*
X02711Y04169D02*
X02743D01*
X0258Y043D02*
X02711Y04169D01*
X0248Y0466D02*
X02497Y04643D01*
Y03882D02*
Y04643D01*
Y03782D02*
X02656D01*
X02743Y03869*
X0236Y0321D02*
X02425Y03275D01*
Y03345*
X0249Y0341*
X04006Y0458D02*
Y0472D01*
Y0444D02*
Y0458D01*
Y043D02*
Y0444D01*
Y043D02*
X041Y04206D01*
Y0412D02*
Y04206D01*
Y0412D02*
X044D01*
X04288Y04232D02*
X044Y0412D01*
X04288Y04232D02*
Y04358D01*
X0435Y0442*
Y0466*
X0467Y0308D02*
X04792Y03202D01*
X044Y0412D02*
X046D01*
X044Y0402D02*
X046D01*
X041D02*
X044D01*
X0457Y0308D02*
Y0328D01*
X0447Y0308D02*
Y0318D01*
X0437Y0328D02*
X0447Y0318D01*
X0249Y0341D02*
X0261D01*
X0236D02*
X0249D01*
X02743Y0409D02*
Y04169D01*
Y0409D02*
X02867Y03966D01*
X0303Y04011D02*
Y0404D01*
X02497Y03882D02*
X02575Y0396D01*
X02782*
X0288Y03862*
X02867Y03966D02*
X02985D01*
X0303Y04011*
X0288Y0384D02*
X02945Y03905D01*
X03095*
X0323Y0404*
G54D14*
X03594Y043D02*
X03662Y04232D01*
X0229Y0344D02*
X0236Y0351D01*
X0229Y0338D02*
Y0344D01*
Y0338D02*
X0236Y0331D01*
X0293Y0404D02*
X02935Y04045D01*
Y04612*
X0261Y0352D02*
X0277Y0368D01*
X0261Y0351D02*
Y0352D01*
X02392Y027D02*
X0264D01*
X02266Y02826D02*
X02392Y027D01*
X02266Y02826D02*
Y03216D01*
X0236Y0331*
X0249Y0351D02*
X0261D01*
X0236D02*
X0249D01*
X0336Y043D02*
X03594D01*
X03146D02*
X0336D01*
X034Y0444D02*
X03594D01*
X0336Y044D02*
X034Y0444D01*
X0332D02*
X0336Y044D01*
X03146Y0444D02*
X0332D01*
X0341Y0458D02*
X03594D01*
X0336Y0463D02*
X0341Y0458D01*
X0331D02*
X0336Y0463D01*
X03146Y0458D02*
X0331D01*
X03146Y0472D02*
X03594D01*
X03043D02*
X03146D01*
X02935Y04612D02*
X03043Y0472D01*
X044Y0422D02*
X0445Y0427D01*
Y0442*
Y0466*
X0348Y0384D02*
Y03853D01*
X03662Y04035*
Y04232*
G54D17*
X0288Y0384D03*
X0293Y0404D03*
X0303D03*
X0313D03*
X0318Y0384D03*
X0323Y0404D03*
X0328Y0384D03*
X0333Y0404D03*
X0338Y0384D03*
X0343Y0404D03*
X0348Y0384D03*
X0353Y0404D03*
X0358Y0384D03*
X0238Y044D03*
Y043D03*
Y042D03*
X0258D03*
Y043D03*
Y044D03*
G54D18*
X0298Y0384D03*
X0308D03*
G54D19*
X02743Y04169D03*
Y03869D03*
G54D20*
X044Y0422D03*
Y0412D03*
Y0402D03*
G54D21*
X0445Y0442D03*
X0435D03*
X0454Y0346D03*
X0464D03*
X044D03*
X043D03*
G54D22*
X0364Y029D03*
X0292D03*
X0264D03*
X0292Y027D03*
X0264D03*
X032D03*
X0348D03*
X032Y029D03*
X0348D03*
X0364Y027D03*
X0392D03*
Y029D03*
X0408Y027D03*
X0436D03*
X0408Y029D03*
X0436D03*
G54D23*
X046Y0402D03*
Y0412D03*
G54D24*
X041Y0402D03*
Y0412D03*
X02497Y03782D03*
Y03882D03*
X0381Y0396D03*
Y0406D03*
X0445Y0466D03*
X0435D03*
G54D25*
X0248Y0466D03*
X0236Y0351D03*
X0249D03*
X0261D03*
X0336Y043D03*
G54D26*
X0248Y0476D03*
X0236Y0321D03*
Y0331D03*
Y0341D03*
X0249Y0321D03*
Y0331D03*
Y0341D03*
X0261Y0321D03*
Y0331D03*
Y0341D03*
X0457Y0381D03*
X0447D03*
X0437D03*
X0427D03*
X0417D03*
X0407D03*
X0397D03*
X0336Y044D03*
G54D27*
X03146Y0444D03*
Y043D03*
Y0458D03*
Y0472D03*
X03996Y04715D03*
Y04575D03*
X04001Y043D03*
Y0443D03*
G54D28*
X02734Y0444D03*
Y043D03*
Y0458D03*
Y0472D03*
X03584Y04715D03*
Y04575D03*
X03589Y043D03*
Y0443D03*
G54D29*
X0467Y0368D03*
X0457D03*
X0447D03*
X0437D03*
X0427D03*
X0417D03*
X0407D03*
X0397D03*
X0387D03*
X0377D03*
X0367D03*
X0357D03*
X0347D03*
X0337D03*
X0327D03*
X0317D03*
X0307D03*
X0297D03*
X0287D03*
X0277D03*
X0467Y0308D03*
X0457D03*
X0447D03*
X0437D03*
X0427D03*
X0417D03*
X0407D03*
X0397D03*
X0387D03*
X0377D03*
X0367D03*
X0357D03*
X0347D03*
X0337D03*
X0327D03*
X0317D03*
X0307D03*
X0297D03*
X0287D03*
G54D30*
X0277Y0308D03*
G54D31*
X0457Y0328D03*
X0437D03*
G54D32*
X0336Y0463D03*
G54D33*
X0336Y0473D03*
G54D34*
X0467Y0381D03*
G54D35*
X0475Y0475D03*
X023Y048D03*
X0245Y029D03*
X0475Y0275D03*
G54D36*
X0308Y0369D02*
Y0384D01*
X0318Y0369D02*
Y0384D01*
G54D37*
X0333Y03785D02*
Y0404D01*
X0327Y03725D02*
X0333Y03785D01*
X0327Y0368D02*
Y03725D01*
X0343Y03777D02*
Y0404D01*
X0337Y03717D02*
X0343Y03777D01*
X0337Y0368D02*
Y03717D01*
G54D38*
X02694Y044D02*
X02734Y0444D01*
X0258Y044D02*
X02694D01*
X02734Y0458D02*
Y0472D01*
Y0444D02*
Y0458D01*
Y043D02*
Y0444D01*
X02694Y0476D02*
X02734Y0472D01*
X0248Y0476D02*
X02694D01*
M02*