%FSTAX23Y23*%
%MOIN*%
%SFA1B1*%

%IPPOS*%
%AMD17*
4,1,8,0.012500,0.037500,-0.012500,0.037500,-0.025000,0.025000,-0.025000,-0.025000,-0.012500,-0.037500,0.012500,-0.037500,0.025000,-0.025000,0.025000,0.025000,0.012500,0.037500,0.0*
%
%AMD18*
4,1,8,0.025000,0.025000,-0.025000,0.025000,-0.037500,0.012500,-0.037500,-0.012500,-0.025000,-0.025000,0.025000,-0.025000,0.037500,-0.012500,0.037500,0.012500,0.025000,0.025000,0.0*
%
%AMD20*
4,1,8,-0.037500,0.012500,-0.037500,-0.012500,-0.025000,-0.025000,0.025000,-0.025000,0.037500,-0.012500,0.037500,0.012500,0.025000,0.025000,-0.025000,0.025000,-0.037500,0.012500,0.0*
%
%ADD10R,0.045000X0.060000*%
%ADD11R,0.060000X0.045000*%
%ADD12C,0.030000*%
%ADD13C,0.050000*%
%ADD14C,0.060000*%
%ADD15C,0.045000*%
%ADD16C,0.040000*%
G04~CAMADD=17~4~0.0~0.0~500.0~750.0~0.0~125.0~0~0.0~0.0~0.0~0.0~0~0.0~0.0~0.0~0.0~0~0.0~0.0~0.0~0.0~500.0~750.0*
%ADD17D17*%
G04~CAMADD=18~4~0.0~0.0~750.0~500.0~0.0~125.0~0~0.0~0.0~0.0~0.0~0~0.0~0.0~0.0~0.0~0~0.0~0.0~0.0~0.0~750.0~500.0*
%ADD18D18*%
%ADD19O,0.080000X0.070000*%
G04~CAMADD=20~4~0.0~0.0~500.0~750.0~0.0~125.0~0~0.0~0.0~0.0~0.0~0~0.0~0.0~0.0~0.0~0~0.0~0.0~0.0~90.0~750.0~500.0*
%ADD20D20*%
%ADD21O,0.060000X0.080000*%
%ADD22O,0.080000X0.060000*%
%ADD23O,0.080000X0.060000*%
%ADD24C,0.060000*%
%ADD25R,0.059000X0.059000*%
%ADD26C,0.059000*%
%ADD27C,0.079000*%
%ADD28R,0.079000X0.079000*%
%ADD29O,0.045000X0.100000*%
%ADD30R,0.045000X0.100000*%
%ADD31O,0.062000X0.082000*%
%ADD32O,0.070000X0.060000*%
%ADD33R,0.070000X0.060000*%
%ADD34R,0.059000X0.059000*%
%ADD35C,0.070000*%
%LNxiaochequdongban-1*%
%LPD*%
G54D10*
X0378Y0352D03*
Y0343D03*
X0367D03*
Y0352D03*
X0287D03*
Y0343D03*
X0297Y0352D03*
Y0343D03*
X0307Y0352D03*
Y0343D03*
X0317Y0352D03*
Y0343D03*
X0327Y0352D03*
Y0343D03*
X0337Y0352D03*
Y0343D03*
X0347Y0352D03*
Y0343D03*
X0357Y0352D03*
Y0343D03*
X0407Y0323D03*
Y0332D03*
X0397Y0323D03*
Y0332D03*
X0387Y0323D03*
Y0332D03*
G54D11*
X0348Y0324D03*
X0357D03*
G54D12*
X0381Y0396D02*
X0382Y0395D01*
Y0356D02*
Y0395D01*
X0378Y0352D02*
X0382Y0356D01*
X0317Y0352D02*
Y0368D01*
X0307Y0352D02*
Y0368D01*
X0297Y0352D02*
Y0368D01*
X0287Y0352D02*
Y0368D01*
X0407Y0308D02*
Y0323D01*
X0397Y0308D02*
Y0323D01*
X0387Y0308D02*
Y0323D01*
X0367Y0352D02*
Y0368D01*
X0357Y0352D02*
Y0368D01*
X0347Y0352D02*
Y0368D01*
X0337Y0352D02*
Y0368D01*
X0327Y0352D02*
Y0368D01*
X0292Y029D02*
Y03186D01*
X02974Y0324*
X0348*
X0357Y0308D02*
Y0324D01*
G54D13*
X02522Y043D02*
X0258D01*
X02477Y04345D02*
X02522Y043D01*
X02477Y04345D02*
Y0447D01*
X02591Y04584*
Y04725*
X02754Y04888*
X02319Y0341D02*
X0236D01*
X02289Y0344D02*
X02319Y0341D01*
X02289Y0344D02*
Y03778D01*
X02754Y04888D02*
X04042D01*
X0422Y0471*
Y0414D02*
Y0471D01*
X041Y0402D02*
X0422Y0414D01*
X03479Y03941D02*
X0358Y0384D01*
X03329Y03941D02*
X03479D01*
X0323Y0404D02*
X03329Y03941D01*
X02393Y03882D02*
X02497D01*
X02289Y03778D02*
X02393Y03882D01*
G54D14*
X0298Y0384D02*
Y03864D01*
X02849Y03995D02*
X0298Y03864D01*
X02849Y03995D02*
Y04428D01*
X0328Y0384D02*
Y03866D01*
X0313Y04016D02*
X0328Y03866D01*
X0313Y04016D02*
Y0404D01*
X0353D02*
Y0406D01*
X03453Y04137D02*
X0353Y0406D01*
X0328Y0384D02*
X0338D01*
X03001Y0458D02*
X03146D01*
X02849Y04428D02*
X03001Y0458D01*
X0397Y0332D02*
X0407D01*
X0387D02*
X0397D01*
X0367Y0343D02*
X0378D01*
X0357D02*
X0367D01*
X0347D02*
X0357D01*
X0337D02*
X0347D01*
X0327D02*
X0337D01*
X0317D02*
X0327D01*
X0307D02*
X0317D01*
X0297D02*
X0307D01*
X0287D02*
X0297D01*
X0387Y0332D02*
Y0334D01*
X0378Y0343D02*
X0387Y0334D01*
X0261Y0351D02*
X0269Y0343D01*
X0287*
X03453Y04137D02*
Y04328D01*
X03565Y0444*
X03594*
G54D15*
X0407Y0332D02*
Y03489D01*
X0414Y03559*
X04694*
X0479Y03655*
Y04088*
X04658Y0422D02*
X0479Y04088D01*
X044Y0422D02*
X04658D01*
G54D16*
X03201Y03761D02*
X0328Y0384D01*
X02821Y03761D02*
X03201D01*
X0277Y0371D02*
X02821Y03761D01*
X0277Y0368D02*
Y0371D01*
G54D17*
X0288Y0384D03*
X0293Y0404D03*
X0303D03*
X0313D03*
X0318Y0384D03*
X0323Y0404D03*
X0328Y0384D03*
X0333Y0404D03*
X0338Y0384D03*
X0343Y0404D03*
X0348Y0384D03*
X0353Y0404D03*
X0358Y0384D03*
X0238Y044D03*
Y043D03*
Y042D03*
X0258D03*
Y043D03*
Y044D03*
G54D18*
X0298Y0384D03*
X0308D03*
G54D19*
X02743Y04169D03*
Y03869D03*
G54D20*
X044Y0422D03*
Y0412D03*
Y0402D03*
G54D21*
X0445Y0442D03*
X0435D03*
X0454Y0346D03*
X0464D03*
X044D03*
X043D03*
G54D22*
X0364Y029D03*
X0292D03*
X0264D03*
X0292Y027D03*
X0264D03*
X032D03*
X0348D03*
X032Y029D03*
X0348D03*
X0364Y027D03*
X0392D03*
Y029D03*
X0408Y027D03*
X0436D03*
X0408Y029D03*
X0436D03*
G54D23*
X046Y0402D03*
Y0412D03*
G54D24*
X041Y0402D03*
Y0412D03*
X02497Y03782D03*
Y03882D03*
X0381Y0396D03*
Y0406D03*
X0445Y0466D03*
X0435D03*
G54D25*
X0248Y0466D03*
X0236Y0351D03*
X0249D03*
X0261D03*
X0336Y043D03*
G54D26*
X0248Y0476D03*
X0236Y0321D03*
Y0331D03*
Y0341D03*
X0249Y0321D03*
Y0331D03*
Y0341D03*
X0261Y0321D03*
Y0331D03*
Y0341D03*
X0457Y0381D03*
X0447D03*
X0437D03*
X0427D03*
X0417D03*
X0407D03*
X0397D03*
X0336Y044D03*
G54D27*
X03146Y0444D03*
Y043D03*
Y0458D03*
Y0472D03*
X03996Y04715D03*
Y04575D03*
X04001Y043D03*
Y0443D03*
G54D28*
X02734Y0444D03*
Y043D03*
Y0458D03*
Y0472D03*
X03584Y04715D03*
Y04575D03*
X03589Y043D03*
Y0443D03*
G54D29*
X0467Y0368D03*
X0457D03*
X0447D03*
X0437D03*
X0427D03*
X0417D03*
X0407D03*
X0397D03*
X0387D03*
X0377D03*
X0367D03*
X0357D03*
X0347D03*
X0337D03*
X0327D03*
X0317D03*
X0307D03*
X0297D03*
X0287D03*
X0277D03*
X0467Y0308D03*
X0457D03*
X0447D03*
X0437D03*
X0427D03*
X0417D03*
X0407D03*
X0397D03*
X0387D03*
X0377D03*
X0367D03*
X0357D03*
X0347D03*
X0337D03*
X0327D03*
X0317D03*
X0307D03*
X0297D03*
X0287D03*
G54D30*
X0277Y0308D03*
G54D31*
X0457Y0328D03*
X0437D03*
G54D32*
X0336Y0463D03*
G54D33*
X0336Y0473D03*
G54D34*
X0467Y0381D03*
G54D35*
X0475Y0475D03*
X023Y048D03*
X0245Y029D03*
X0475Y0275D03*
M02*