%FSTAX23Y23*%
%MOIN*%
%SFA1B1*%

%IPPOS*%
%ADD9500C,0.028000*%
%ADD9501C,0.030000*%
%ADD9502C,0.032000*%
%ADD9503C,0.035000*%
%ADD9504C,0.039000*%
%ADD9505C,0.040000*%
%ADD9506C,0.045000*%
%ADD9507C,0.047000*%
%LNxiaochequdongban-1*%
%LPD*%
G54D9500*
X0437Y0328D03*
X0457D03*
X0454Y0346D03*
X0464D03*
X044D03*
X043D03*
X046Y0402D03*
Y0412D03*
X0445Y0442D03*
X0435D03*
G54D9501*
X02497Y03782D03*
Y03882D03*
X0381Y0396D03*
Y0406D03*
X041Y0402D03*
Y0412D03*
X0435Y0466D03*
X0445D03*
G54D9502*
X02743Y03869D03*
Y04169D03*
X0336Y0463D03*
Y0473D03*
G54D9503*
X0236Y0321D03*
Y0331D03*
Y0341D03*
Y0351D03*
X0249D03*
Y0341D03*
Y0331D03*
Y0321D03*
X0261D03*
Y0331D03*
Y0341D03*
Y0351D03*
X0248Y0466D03*
X0336Y044D03*
Y043D03*
X0397Y0381D03*
X0407D03*
X0417D03*
X0427D03*
X0437D03*
X0447D03*
X0457D03*
X0467D03*
X0248Y0476D03*
G54D9504*
X032Y027D03*
Y029D03*
X0348D03*
X0364D03*
Y027D03*
X0348D03*
X0392D03*
X0408D03*
Y029D03*
X0392D03*
X0436D03*
Y027D03*
X0292D03*
Y029D03*
X0264D03*
Y027D03*
G54D9505*
X0317Y0308D03*
X0327D03*
X0337D03*
X0347D03*
X0357D03*
X0367D03*
X0377D03*
X0387D03*
X0397D03*
X0407D03*
X0417D03*
X0427D03*
X0437D03*
X0447D03*
X0457D03*
X0467D03*
X0307D03*
X0297D03*
X0287D03*
X0277D03*
Y0368D03*
X0287D03*
X0297D03*
X0307D03*
X0308Y0384D03*
X0298D03*
X0288D03*
X0293Y0404D03*
X0303D03*
X0258Y042D03*
Y043D03*
Y044D03*
X0238D03*
Y043D03*
Y042D03*
X0313Y0404D03*
X0323D03*
X0333D03*
X0343D03*
X0353D03*
X0348Y0384D03*
X0338D03*
X0328D03*
X0318D03*
X0317Y0368D03*
X0327D03*
X0337D03*
X0347D03*
X0357D03*
X0367D03*
X0377D03*
X0387D03*
X0397D03*
X0407D03*
X0417D03*
X0427D03*
X0437D03*
X0447D03*
X0457D03*
X0467D03*
X044Y0402D03*
Y0412D03*
Y0422D03*
X0358Y0384D03*
G54D9506*
X0475Y0275D03*
X0245Y029D03*
X0475Y0475D03*
X023Y048D03*
G54D9507*
X02734Y043D03*
Y0444D03*
Y0458D03*
X03146D03*
Y0444D03*
Y043D03*
X03589D03*
Y0443D03*
X03584Y04575D03*
X03996D03*
X04001Y0443D03*
Y043D03*
X03996Y04715D03*
X03584D03*
X03146Y0472D03*
X02734D03*
M02*